<mxfile host="app.diagrams.net" modified="2024-03-19T00:55:30.204Z" agent="Mozilla/5.0 (X11; Linux x86_64; rv:123.0) Gecko/20100101 Firefox/123.0" version="24.0.7" etag="qs5A5eVb6rwXqoN48eTO" type="github">
  <diagram name="Page-1" id="-aXR3FrqBCDi08cUt0UD">
    <mxGraphModel>
      <root>
        <mxCell id="0" />
        <mxCell id="1" parent="0" />
      </root>
    </mxGraphModel>
  </diagram>
</mxfile>
